<svg version="1.2" xmlns="http://www.w3.org/2000/svg" xmlns:xlink="http://www.w3.org/1999/xlink" overflow="visible" preserveAspectRatio="none" viewBox="0 0 20 20.000010000000003" width="20" height="20.000010000000003"><g transform="translate(0, 0)"><g transform="translate(0, -8.881784197001252e-16) rotate(0)"><path d="M1.255,7.53056c0,-3.46111 2.81528,-6.275 6.275,-6.275c3.46056,0 6.275,2.81389 6.275,6.275c0,3.45833 -2.81444,6.275 -6.275,6.275c-3.45972,0 -6.275,-2.81667 -6.275,-6.275zM20,19.11111l-6.73278,-6.73333c1.11194,-1.31111 1.79278,-2.99722 1.79278,-4.84722c0,-4.15278 -3.3775,-7.53056 -7.53,-7.53056c-4.1525,0 -7.53,3.37778 -7.53,7.53056c0,4.15278 3.3775,7.53056 7.53,7.53056c1.85083,0 3.5375,-0.68333 4.84944,-1.79444l6.73278,6.73333z" style="stroke: rgb(140, 140, 140); stroke-width: 0; stroke-linecap: butt; stroke-linejoin: miter; fill: rgb(0, 0, 0);" vector-effect="non-scaling-stroke"/></g><defs><path id="path-174236556401320357" d="M1.255,7.53056c0,-3.46111 2.81528,-6.275 6.275,-6.275c3.46056,0 6.275,2.81389 6.275,6.275c0,3.45833 -2.81444,6.275 -6.275,6.275c-3.45972,0 -6.275,-2.81667 -6.275,-6.275zM20,19.11111l-6.73278,-6.73333c1.11194,-1.31111 1.79278,-2.99722 1.79278,-4.84722c0,-4.15278 -3.3775,-7.53056 -7.53,-7.53056c-4.1525,0 -7.53,3.37778 -7.53,7.53056c0,4.15278 3.3775,7.53056 7.53,7.53056c1.85083,0 3.5375,-0.68333 4.84944,-1.79444l6.73278,6.73333z" vector-effect="non-scaling-stroke"/></defs></g></svg>